<svg width="695" height="75" xmlns="http://www.w3.org/2000/svg"><g fill="none"><path fill="#000" d="M380 0L434.949624 0 434.949624 8 388 8 388 33 431 33 431 41 388 41 388 67 435 67 435 75 380 75z"/><path fill="#000" d="M510 0L564.949624 0 564.949624 8 518 8 518 33 561 33 561 41 518 41 518 67 565 67 565 75 510 75z"/><path fill="#000" d="M130 0L184.949624 0 184.949624 8 138 8 138 33 181 33 181 41 138 41 138 67 185 67 185 75 130 75z"/><path d="M211 71c-2.786 2.786-6.011 4-10 4h-6c13.05-12.5 33.987-32.48 35-34h-8.91c-4.41 0-8.938-.55-13.04-2-8.551-2.96-12.792-10-12.792-18.5S200 3 210.463.306A9.73 9.73 0 0 1 212.916 0h35.723c.398 0 .795.079 1.361.138V75h-8V41.102C240.947 42.266 227 55 211 71zm31-38V8h-25.697C207 8 202.885 14.206 203 20.5c.225 6.276 4.5 12.5 13.81 12.5H242z" fill="red"/><path d="M465 33.102h8.91c4.41 0 8.938.55 13.04 2 8.551 2.96 12.792 10.398 12.792 18.898S495 72 484.537 74.694a9.73 9.73 0 0 1-2.453.306H446.36c-.398 0-.795-.079-1.361-.138V0h47v8h-39v25c4.5.102 7.5.102 12 .102zM453 41v26h25.697C488 67 492.115 60.546 492 54c-.225-6.527-4.5-13-13.81-13H453z" fill="#000"/><path d="M640.018 0H648v62c17.352-27.727 29.686-47.394 37-59 1.423-2.274 3.486-3 6-3h4v75h-8V13c-17 28-29.333 47.667-37 59-1.582 2.338-3.5 3-6 3h-4l.018-75zm-640 0H8v62C25.352 34.273 37.686 14.606 45 3c1.423-2.274 3.486-3 6-3h4v75h-8V13C30 41 17.667 60.667 10 72c-1.582 2.338-3.5 3-6 3H0L.018 0zM323 0v62c17.352-27.727 29.686-47.394 37-59 1.423-2.274 3.486-3 6-3h4v75h-8V13c-17 28-29.333 47.667-37 59-1.582 2.338-3.5 3-6 3h-4l.015-61.976C315.015 12.427 289 56 278 72c-1.675 2.436-3.5 3-6 3h-4c17.3-28 35.5-57 45-72 1.568-2.476 3.5-3 6-3h4z" fill="#000"/><path d="M583 62c17.352-27.727 29.686-47.394 37-59 1.423-2.274 3.486-3 6-3h4v75h-8V13c-17 28-29.333 47.667-37 59-1.582 2.338-3.5 3-6 3h-4l8-13z" fill="red"/><path d="M73 62c17.352-27.727 29.686-47.394 37-59 1.423-2.274 3.486-3 6-3h4v75h-8V13C94.702 41.169 83.478 59.17 78.33 67.002 83.5 67 99.5 67 112 67v8H65.5c0-1.5.5-2.5 1.5-4l6-9z" fill="#000"/></g></svg>