<svg width="427" height="160" xmlns="http://www.w3.org/2000/svg"><g fill="none"><path fill="#000" d="M112 85L166.949624 85 166.949624 93 120 93 120 118 163 118 163 126 120 126 120 152 167 152 167 160 112 160z"/><path fill="#000" d="M242 85L296.949624 85 296.949624 93 250 93 250 118 293 118 293 126 250 126 250 152 297 152 297 160 242 160z"/><path fill="#000" d="M307 0L361.949624 0 361.949624 8 315 8 315 33 358 33 358 41 315 41 315 67 362 67 362 75 307 75z"/><path d="M388 71c-2.786 2.786-6.011 4-10 4h-6c13.05-12.5 33.987-32.48 35-34h-8.91c-4.41 0-8.938-.55-13.04-2-8.551-2.96-12.792-10-12.792-18.5S377 3 387.463.306A9.73 9.73 0 0 1 389.916 0h35.723c.398 0 .795.079 1.361.138V75h-8V41.102C417.947 42.266 404 55 388 71zm31-38V8h-25.697C384 8 379.885 14.206 380 20.5c.225 6.276 4.5 12.5 13.81 12.5H419z" fill="red"/><path d="M197 118.102h8.91c4.41 0 8.938.55 13.04 2 8.551 2.96 12.792 10.398 12.792 18.898s-4.742 18-15.205 20.694a9.73 9.73 0 0 1-2.453.306H178.36c-.398 0-.795-.079-1.361-.138V85h47v8h-39v25c4.5.102 7.5.102 12 .102zM185 126v26h25.697c9.303 0 13.418-6.454 13.303-13-.225-6.527-4.5-13-13.81-13H185z" fill="#000"/><path d="M372.018 85H380v62c17.352-27.727 29.686-47.394 37-59 1.423-2.274 3.486-3 6-3h4v75h-8V98c-17 28-29.333 47.667-37 59-1.582 2.338-3.5 3-6 3h-4l.018-75zm-195-85H185v62c17.352-27.727 29.686-47.394 37-59 1.423-2.274 3.486-3 6-3h4v75h-8V13c-17 28-29.333 47.667-37 59-1.582 2.338-3.5 3-6 3h-4l.018-75zM55 85v62c17.352-27.727 29.686-47.394 37-59 1.423-2.274 3.486-3 6-3h4v75h-8V98c-17 28-29.333 47.667-37 59-1.582 2.338-3.5 3-6 3h-4l.015-61.976C47.015 97.427 21 141 10 157c-1.675 2.436-3.5 3-6 3H0c17.3-28 35.5-57 45-72 1.568-2.476 3.5-3 6-3h4z" fill="#000"/><path d="M315 147c17.352-27.727 29.686-47.394 37-59 1.423-2.274 3.486-3 6-3h4v75h-8V98c-17 28-29.333 47.667-37 59-1.582 2.338-3.5 3-6 3h-4l8-13z" fill="red"/><path d="M250 62c17.352-27.727 29.686-47.394 37-59 1.423-2.274 3.486-3 6-3h4v75h-8V13c-17.298 28.169-28.522 46.17-33.67 54.002C260.5 67 276.5 67 289 67v8h-46.5c0-1.5.5-2.5 1.5-4l6-9z" fill="#000"/></g></svg>