<svg width="512" height="512" xmlns="http://www.w3.org/2000/svg"><g transform="translate(160 176)" fill="#EDEDED"><circle cx="96.5" cy="95.5" r="30.5"/><path d="M141 19l-1.947-9.836C138.002 3.854 133.348 0 127.987 0H65.013c-5.36 0-10.015 3.854-11.066 9.164L52 19h89zm34.125 11H16.875C7.57 30 0 37.556 0 46.843v97.314C0 153.444 7.57 161 16.875 161h158.25c9.305 0 16.875-7.556 16.875-16.843V46.843C192 37.556 184.43 30 175.125 30zM48 65.183H30a5.62 5.62 0 0 1-5.625-5.614A5.62 5.62 0 0 1 30 53.954h18a5.62 5.62 0 0 1 5.625 5.615A5.62 5.62 0 0 1 48 65.183zm48 71.863c-22.952 0-41.625-18.637-41.625-41.546S73.048 53.954 96 53.954s41.625 18.637 41.625 41.546S118.952 137.046 96 137.046z"/></g></svg>